<mxfile host="app.diagrams.net" modified="2023-06-26T11:04:11.334Z" agent="Mozilla/5.0 (Windows NT 10.0; Win64; x64) AppleWebKit/537.36 (KHTML, like Gecko) Chrome/114.0.0.0 Safari/537.36" version="21.5.0" etag="KpC6BjMIgw5nQKem448D" type="github">
  <diagram name="Page-1" id="evJy5cY9O6yuJddkXqh1">
    <mxGraphModel>
      <root>
        <mxCell id="0" />
        <mxCell id="1" parent="0" />
      </root>
    </mxGraphModel>
  </diagram>
</mxfile>
